<svg width="32" height="24" viewBox="0 0 32 24" fill="none" xmlns="http://www.w3.org/2000/svg">
<path d="M17.1667 3.96429C17.8 3.58929 18.2222 2.90893 18.2222 2.14286C18.2222 0.958929 17.2278 0 16 0C14.7722 0 13.7778 0.958929 13.7778 2.14286C13.7778 2.91429 14.2 3.58929 14.8333 3.96429L11.65 10.1036C11.1444 11.0786 9.83333 11.3571 8.95 10.6768L4 6.85714C4.27778 6.49821 4.44444 6.05357 4.44444 5.57143C4.44444 4.3875 3.45 3.42857 2.22222 3.42857C0.994444 3.42857 0 4.3875 0 5.57143C0 6.75536 0.994444 7.71429 2.22222 7.71429H2.26111L4.8 21.1821C5.10556 22.8107 6.57778 24 8.3 24H23.7C25.4167 24 26.8889 22.8161 27.2 21.1821L29.7389 7.71429H29.7778C31.0056 7.71429 32 6.75536 32 5.57143C32 4.3875 31.0056 3.42857 29.7778 3.42857C28.55 3.42857 27.5556 4.3875 27.5556 5.57143C27.5556 6.05357 27.7222 6.49821 28 6.85714L23.05 10.6768C22.1667 11.3571 20.8556 11.0786 20.35 10.1036L17.1667 3.96429Z" fill="#BCBCBC"/>
</svg>
