<svg width="24" height="24" viewBox="0 0 24 24" fill="none" xmlns="http://www.w3.org/2000/svg">
<path fill-rule="evenodd" clip-rule="evenodd" d="M4.95405 9.20403C4.44908 9.20403 3.96479 9.40463 3.60772 9.7617C3.25065 10.1188 3.05005 10.6031 3.05005 11.108V19.095C3.05005 20.147 3.90205 21 4.95405 21H6.88405V9.20403H4.95405ZM20.413 6.99703H15.871V2.73603C15.8713 2.35369 15.7453 1.98197 15.5126 1.67858C15.2799 1.37519 14.9536 1.1571 14.5843 1.05816C14.215 0.959217 13.8233 0.984966 13.4701 1.13141C13.117 1.27785 12.822 1.53679 12.631 1.86803L8.39505 9.20403H8.38405V21H17.618C18.4694 21 19.2963 20.7148 19.9666 20.1899C20.6369 19.665 21.112 18.9306 21.316 18.104L23.1861 10.54C23.2901 10.1192 23.2971 9.68016 23.2064 9.25622C23.1157 8.83228 22.9297 8.43455 22.6625 8.09315C22.3953 7.75175 22.0539 7.47564 21.6641 7.28573C21.2744 7.09582 20.8466 6.99709 20.413 6.99703" fill="#5C5961"/>
</svg>
