<svg width="21" height="20" viewBox="0 0 21 20" fill="none" xmlns="http://www.w3.org/2000/svg">
<path fill-rule="evenodd" clip-rule="evenodd" d="M1.95405 8.20403C1.44908 8.20403 0.964787 8.40463 0.607718 8.7617C0.250648 9.11877 0.0500488 9.60306 0.0500488 10.108V18.095C0.0500488 19.147 0.902049 20 1.95405 20H3.88405V8.20403H1.95405ZM17.413 5.99703H12.871V1.73603C12.8713 1.35369 12.7453 0.981974 12.5126 0.678582C12.2799 0.375191 11.9536 0.157097 11.5843 0.0581567C11.215 -0.0407832 10.8233 -0.0150343 10.4701 0.131406C10.117 0.277847 9.822 0.536787 9.63105 0.86803L5.39505 8.20403H5.38405V20H14.618C15.4694 20 16.2963 19.7148 16.9666 19.1899C17.6369 18.665 18.112 17.9306 18.316 17.104L20.1861 9.54003C20.2901 9.11918 20.2971 8.68016 20.2064 8.25622C20.1157 7.83228 19.9297 7.43455 19.6625 7.09315C19.3953 6.75175 19.0539 6.47564 18.6641 6.28573C18.2744 6.09582 17.8466 5.99709 17.413 5.99703Z" fill="#5C5961"/>
</svg>
