<svg width="24" height="24" viewBox="0 0 24 24" fill="none" xmlns="http://www.w3.org/2000/svg">
<path fill-rule="evenodd" clip-rule="evenodd" d="M12 20C16.4183 20 20 16.4183 20 12C20 7.58172 16.4183 4 12 4C7.58172 4 4 7.58172 4 12C4 16.4183 7.58172 20 12 20ZM7.75736 12C7.49701 11.7397 7.49701 11.3175 7.75736 11.0572C8.01771 10.7968 8.43982 10.7968 8.70017 11.0572L11.0572 13.4142L15.2998 9.17157C15.5602 8.91122 15.9823 8.91122 16.2426 9.17157C16.503 9.43192 16.503 9.85403 16.2426 10.1144L11.5286 14.8284C11.2682 15.0888 10.8461 15.0888 10.5858 14.8284L7.75736 12Z" fill="#3F3C42"/>
</svg>
