<svg width="20" height="20" viewBox="0 0 20 20" fill="none" xmlns="http://www.w3.org/2000/svg">
<rect width="20" height="20" rx="10" fill="#F9F7FA"/>
<path d="M10.0001 12.8934C10.7292 12.8934 11.3491 12.6299 11.8597 12.1031C12.3704 11.5763 12.6255 10.9369 12.6251 10.185C12.6251 9.43271 12.3698 8.79314 11.8592 8.26632C11.3486 7.7395 10.7289 7.47629 10.0001 7.47669C9.27091 7.47669 8.65103 7.7401 8.14042 8.26692C7.6298 8.79374 7.37469 9.43311 7.37508 10.185C7.37508 10.9373 7.63039 11.5769 8.141 12.1037C8.65161 12.6305 9.2713 12.8938 10.0001 12.8934ZM10.0001 11.6897C9.59175 11.6897 9.24661 11.5442 8.96466 11.2533C8.68272 10.9624 8.54175 10.6063 8.54175 10.185C8.54175 9.76373 8.68272 9.40763 8.96466 9.11674C9.24661 8.82584 9.59175 8.68039 10.0001 8.68039C10.4084 8.68039 10.7536 8.82584 11.0355 9.11674C11.3174 9.40763 11.4584 9.76373 11.4584 10.185C11.4584 10.6063 11.3174 10.9624 11.0355 11.2533C10.7536 11.5442 10.4084 11.6897 10.0001 11.6897ZM5.33342 14.9998C5.01258 14.9998 4.73783 14.8819 4.50917 14.6459C4.2805 14.41 4.16636 14.1268 4.16675 13.7961V6.57391C4.16675 6.24289 4.28108 5.95942 4.50975 5.72349C4.73842 5.48757 5.01297 5.36981 5.33342 5.37021H7.17092L8.25008 4.1665H11.7501L12.8292 5.37021H14.6667C14.9876 5.37021 15.2623 5.48817 15.491 5.7241C15.7197 5.96002 15.8338 6.24329 15.8334 6.57391V13.7961C15.8334 14.1272 15.7191 14.4106 15.4904 14.6465C15.2617 14.8825 14.9872 15.0002 14.6667 14.9998H5.33342ZM14.6667 13.7961V6.57391H12.3042L11.2397 5.37021H8.7605L7.69592 6.57391H5.33342V13.7961H14.6667Z" fill="#9650FA"/>
</svg>
