<svg width="24" height="24" viewBox="0 0 24 24" fill="none" xmlns="http://www.w3.org/2000/svg">
<path fill-rule="evenodd" clip-rule="evenodd" d="M16.8869 6.64401C16.887 7.28683 16.7604 7.92337 16.5145 8.51729C16.2686 9.1112 15.9081 9.65086 15.4536 10.1054C14.9991 10.56 14.4595 10.9207 13.8656 11.1667C13.2718 11.4128 12.6352 11.5394 11.9924 11.5395C10.6942 11.5396 9.44908 11.024 8.53099 10.1062C7.61291 9.18826 7.09706 7.94325 7.09693 6.64501C7.09686 6.00219 7.22341 5.36565 7.46935 4.77174C7.71528 4.17782 8.07579 3.63817 8.53029 3.18358C9.44818 2.26549 10.6932 1.74964 11.9914 1.74951C13.2897 1.74938 14.5348 2.26497 15.4529 3.18287C16.3709 4.10077 16.8868 5.34578 16.8869 6.64401M11.9919 13.037C4.94293 13.037 2.20093 17.523 2.20093 19.61C2.20093 21.696 8.03793 22.252 11.9919 22.252C15.9459 22.252 21.7829 21.696 21.7829 19.61C21.7829 17.523 19.0409 13.037 11.9919 13.037Z" fill="#5C5961"/>
</svg>
