<svg width="20" height="22" viewBox="0 0 20 22" fill="none" xmlns="http://www.w3.org/2000/svg">
<path fill-rule="evenodd" clip-rule="evenodd" d="M14.8869 5.64401C14.887 6.28683 14.7604 6.92337 14.5145 7.51729C14.2686 8.1112 13.9081 8.65086 13.4536 9.10545C12.9991 9.56003 12.4595 9.92065 11.8656 10.1667C11.2718 10.4128 10.6352 10.5394 9.99243 10.5395C8.69419 10.5396 7.44908 10.024 6.53099 9.10615C5.61291 8.18826 5.09706 6.94325 5.09693 5.64501C5.09686 5.00219 5.22341 4.36565 5.46935 3.77174C5.71528 3.17782 6.07579 2.63817 6.53029 2.18358C7.44818 1.26549 8.69319 0.749644 9.99143 0.749512C11.2897 0.749379 12.5348 1.26497 13.4529 2.18287C14.3709 3.10077 14.8868 4.34578 14.8869 5.64401ZM9.99193 12.037C2.94293 12.037 0.200928 16.523 0.200928 18.61C0.200928 20.696 6.03793 21.252 9.99193 21.252C13.9459 21.252 19.7829 20.696 19.7829 18.61C19.7829 16.523 17.0409 12.037 9.99193 12.037Z" fill="#5C5961"/>
</svg>
