<svg width="24" height="21" viewBox="0 0 24 21" fill="none" xmlns="http://www.w3.org/2000/svg">
<path fill-rule="evenodd" clip-rule="evenodd" d="M11.9999 17.191C11.8423 17.191 11.6863 17.16 11.5407 17.0997C11.3951 17.0394 11.2628 16.951 11.1514 16.8395C11.0399 16.7281 10.9516 16.5958 10.8913 16.4502C10.8309 16.3046 10.7999 16.1486 10.7999 15.991C10.7999 15.8334 10.8309 15.6774 10.8913 15.5318C10.9516 15.3862 11.0399 15.2539 11.1514 15.1425C11.2628 15.0311 11.3951 14.9427 11.5407 14.8824C11.6863 14.8221 11.8423 14.791 11.9999 14.791C12.3182 14.791 12.6234 14.9174 12.8484 15.1425C13.0735 15.3675 13.1999 15.6728 13.1999 15.991C13.1999 16.3093 13.0735 16.6145 12.8484 16.8395C12.6234 17.0646 12.3182 17.191 11.9999 17.191ZM10.9999 7.20801C10.9999 6.9428 11.1053 6.68844 11.2928 6.50091C11.4803 6.31337 11.7347 6.20801 11.9999 6.20801C12.2651 6.20801 12.5195 6.31337 12.707 6.50091C12.8945 6.68844 12.9999 6.9428 12.9999 7.20801V12.208C12.9999 12.4732 12.8945 12.7276 12.707 12.9151C12.5195 13.1027 12.2651 13.208 11.9999 13.208C11.7347 13.208 11.4803 13.1027 11.2928 12.9151C11.1053 12.7276 10.9999 12.4732 10.9999 12.208V7.20801ZM22.9139 16.815L14.0789 1.51201C13.1549 -0.0879883 10.8449 -0.0879883 9.92091 1.51201L1.08591 16.815C0.162906 18.415 1.31591 20.415 3.16491 20.415H20.8349C22.6829 20.415 23.8369 18.415 22.9139 16.815Z" fill="#5C5961"/>
</svg>
