<svg width="24" height="24" viewBox="0 0 24 24" fill="none" xmlns="http://www.w3.org/2000/svg">
<path fill-rule="evenodd" clip-rule="evenodd" d="M11.9999 19.191C11.8423 19.191 11.6863 19.16 11.5407 19.0997C11.3951 19.0394 11.2628 18.951 11.1514 18.8395C11.0399 18.7281 10.9516 18.5958 10.8913 18.4502C10.8309 18.3046 10.7999 18.1486 10.7999 17.991C10.7999 17.8334 10.8309 17.6774 10.8913 17.5318C10.9516 17.3862 11.0399 17.2539 11.1514 17.1425C11.2628 17.0311 11.3951 16.9427 11.5407 16.8824C11.6863 16.8221 11.8423 16.791 11.9999 16.791C12.3182 16.791 12.6234 16.9174 12.8484 17.1425C13.0735 17.3675 13.1999 17.6728 13.1999 17.991C13.1999 18.3093 13.0735 18.6145 12.8484 18.8395C12.6234 19.0646 12.3182 19.191 11.9999 19.191V19.191ZM10.9999 9.20801C10.9999 8.9428 11.1053 8.68844 11.2928 8.50091C11.4803 8.31337 11.7347 8.20801 11.9999 8.20801C12.2651 8.20801 12.5195 8.31337 12.707 8.50091C12.8945 8.68844 12.9999 8.9428 12.9999 9.20801V14.208C12.9999 14.4732 12.8945 14.7276 12.707 14.9151C12.5195 15.1027 12.2651 15.208 11.9999 15.208C11.7347 15.208 11.4803 15.1027 11.2928 14.9151C11.1053 14.7276 10.9999 14.4732 10.9999 14.208V9.20801ZM22.9139 18.815L14.0789 3.51201C13.1549 1.91201 10.8449 1.91201 9.92091 3.51201L1.08591 18.815C0.162906 20.415 1.31591 22.415 3.16491 22.415H20.8349C22.6829 22.415 23.8369 20.415 22.9139 18.815V18.815Z" fill="#5C5961"/>
</svg>
