<svg width="22" height="18" viewBox="0 0 22 18" fill="none" xmlns="http://www.w3.org/2000/svg">
<path fill-rule="evenodd" clip-rule="evenodd" d="M18 8.5H4V15.5C4 16.6046 4.89543 17.5 6 17.5H9V13.1C9 12.5477 9.44772 12.1 10 12.1H12C12.5523 12.1 13 12.5477 13 13.1V17.5H16C17.1046 17.5 18 16.6046 18 15.5V8.5Z" fill="#3F3C42"/>
<path d="M10.3133 1.1488C10.6987 0.784671 11.3013 0.784671 11.6867 1.1488L18.6984 7.7731C19.356 8.39437 18.9163 9.5 18.0117 9.5H3.98835C3.08368 9.5 2.644 8.39437 3.3016 7.7731L10.3133 1.1488Z" fill="#3F3C42"/>
</svg>
