<svg width="24" height="24" viewBox="0 0 24 24" fill="none" xmlns="http://www.w3.org/2000/svg">
<path fill-rule="evenodd" clip-rule="evenodd" d="M19 11.5H5V18.5C5 19.6046 5.89543 20.5 7 20.5H10V16.1C10 15.5477 10.4477 15.1 11 15.1H13C13.5523 15.1 14 15.5477 14 16.1V20.5H17C18.1046 20.5 19 19.6046 19 18.5V11.5Z" fill="#3F3C42"/>
<path d="M11.3133 4.1488C11.6987 3.78467 12.3013 3.78467 12.6867 4.1488L19.6984 10.7731C20.356 11.3944 19.9163 12.5 19.0117 12.5H4.98835C4.08368 12.5 3.644 11.3944 4.3016 10.7731L11.3133 4.1488Z" fill="#3F3C42"/>
</svg>
