<svg width="24" height="24" viewBox="0 0 24 24" fill="none" xmlns="http://www.w3.org/2000/svg">
<rect x="6" y="3" width="2" height="3" rx="1" fill="#3F3C42"/>
<rect x="16" y="3" width="2" height="3" rx="1" fill="#3F3C42"/>
<path fill-rule="evenodd" clip-rule="evenodd" d="M3 7C3 5.89543 3.89543 5 5 5H19C20.1046 5 21 5.89543 21 7V19C21 20.1046 20.1046 21 19 21H5C3.89543 21 3 20.1046 3 19V7ZM6 9C6 8.44772 6.44772 8 7 8C7.55228 8 8 8.44772 8 9C8 9.55228 7.55228 10 7 10C6.44772 10 6 9.55228 6 9ZM7 12C6.44772 12 6 12.4477 6 13C6 13.5523 6.44772 14 7 14C7.55228 14 8 13.5523 8 13C8 12.4477 7.55228 12 7 12ZM6 17C6 16.4477 6.44772 16 7 16C7.55228 16 8 16.4477 8 17C8 17.5523 7.55228 18 7 18C6.44772 18 6 17.5523 6 17ZM9.75 8.25C9.33579 8.25 9 8.58579 9 9C9 9.41421 9.33579 9.75 9.75 9.75H17.25C17.6642 9.75 18 9.41421 18 9C18 8.58579 17.6642 8.25 17.25 8.25H9.75ZM9 13C9 12.5858 9.33579 12.25 9.75 12.25H17.25C17.6642 12.25 18 12.5858 18 13C18 13.4142 17.6642 13.75 17.25 13.75H9.75C9.33579 13.75 9 13.4142 9 13ZM9.75 16.25C9.33579 16.25 9 16.5858 9 17C9 17.4142 9.33579 17.75 9.75 17.75H17.25C17.6642 17.75 18 17.4142 18 17C18 16.5858 17.6642 16.25 17.25 16.25H9.75Z" fill="#3F3C42"/>
</svg>
