<svg width="24" height="24" viewBox="0 0 24 24" fill="none" xmlns="http://www.w3.org/2000/svg">
<path fill-rule="evenodd" clip-rule="evenodd" d="M21 11.2427C21 15.661 16.9706 19.2427 12 19.2427C10.9276 19.2427 9.89899 19.076 8.94521 18.7701L5.07967 20.7029C4.68124 20.9021 4.24086 20.5202 4.38172 20.0976L5.49152 16.7682C3.94798 15.332 3 13.3858 3 11.2427C3 6.82446 7.02944 3.24274 12 3.24274C16.9706 3.24274 21 6.82446 21 11.2427ZM16 12.2427C16.5523 12.2427 17 11.795 17 11.2427C17 10.6905 16.5523 10.2427 16 10.2427C15.4477 10.2427 15 10.6905 15 11.2427C15 11.795 15.4477 12.2427 16 12.2427ZM13 11.2427C13 11.795 12.5523 12.2427 12 12.2427C11.4477 12.2427 11 11.795 11 11.2427C11 10.6905 11.4477 10.2427 12 10.2427C12.5523 10.2427 13 10.6905 13 11.2427ZM8 12.2427C8.55228 12.2427 9 11.795 9 11.2427C9 10.6905 8.55228 10.2427 8 10.2427C7.44772 10.2427 7 10.6905 7 11.2427C7 11.795 7.44772 12.2427 8 12.2427Z" fill="#3F3C42"/>
</svg>
