<svg width="24" height="24" viewBox="0 0 24 24" fill="none" xmlns="http://www.w3.org/2000/svg">
<path fill-rule="evenodd" clip-rule="evenodd" d="M21 11.2428C21 15.6611 16.9706 19.2428 12 19.2428C10.9276 19.2428 9.89899 19.0761 8.94521 18.7702L5.07967 20.703C4.68124 20.9022 4.24086 20.5202 4.38172 20.0976L5.49152 16.7682C3.94798 15.3321 3 13.3858 3 11.2428C3 6.82452 7.02944 3.2428 12 3.2428C16.9706 3.2428 21 6.82452 21 11.2428ZM16 12.2428C16.5523 12.2428 17 11.7951 17 11.2428C17 10.6905 16.5523 10.2428 16 10.2428C15.4477 10.2428 15 10.6905 15 11.2428C15 11.7951 15.4477 12.2428 16 12.2428ZM13 11.2428C13 11.7951 12.5523 12.2428 12 12.2428C11.4477 12.2428 11 11.7951 11 11.2428C11 10.6905 11.4477 10.2428 12 10.2428C12.5523 10.2428 13 10.6905 13 11.2428ZM8 12.2428C8.55228 12.2428 9 11.7951 9 11.2428C9 10.6905 8.55228 10.2428 8 10.2428C7.44772 10.2428 7 10.6905 7 11.2428C7 11.7951 7.44772 12.2428 8 12.2428Z" fill="#3F3C42"/>
</svg>
