<svg width="20" height="20" viewBox="0 0 20 20" fill="none" xmlns="http://www.w3.org/2000/svg">
<path fill-rule="evenodd" clip-rule="evenodd" d="M7.94842 0.628609L7.19812 2.50433C6.36046 2.81757 5.58935 3.26721 4.91184 3.82622L2.90982 3.53777C2.50509 3.47946 2.10564 3.67343 1.90119 4.02755L0.778219 5.97259C0.573767 6.32671 0.60551 6.76963 0.858372 7.09097L2.10833 8.67947C2.03698 9.10905 1.99986 9.55019 1.99986 10C1.99986 10.4497 2.03697 10.8908 2.1083 11.3203L0.858176 12.909C0.605314 13.2304 0.57357 13.6733 0.778023 14.0274L1.90099 15.9725C2.10544 16.3266 2.50489 16.5206 2.90962 16.4622L4.91182 16.1738C5.58934 16.7328 6.36045 17.1824 7.19812 17.4957L7.94842 19.3714C8.10028 19.751 8.46799 20 8.87689 20H11.1228C11.5317 20 11.8994 19.751 12.0513 19.3714L12.8016 17.4957C13.6392 17.1824 14.4103 16.7328 15.0878 16.1739L17.0901 16.4624C17.4948 16.5207 17.8943 16.3267 18.0987 15.9726L19.2217 14.0276C19.4261 13.6734 19.3944 13.2305 19.1415 12.9092L17.8914 11.3204C17.9627 10.8909 17.9999 10.4498 17.9999 10C17.9999 9.55015 17.9627 9.10898 17.8914 8.67937L19.1413 7.09085C19.3942 6.76951 19.426 6.32659 19.2215 5.97246L18.0985 4.02743C17.8941 3.67331 17.4946 3.47934 17.0899 3.53765L15.0878 3.82611C14.4103 3.26716 13.6392 2.81756 12.8016 2.50433L12.0513 0.628609C11.8994 0.248951 11.5317 0 11.1228 0H8.87689C8.46799 0 8.10028 0.24895 7.94842 0.628609ZM9.99986 14C12.209 14 13.9999 12.2091 13.9999 10C13.9999 7.79086 12.209 6 9.99986 6C7.79072 6 5.99986 7.79086 5.99986 10C5.99986 12.2091 7.79072 14 9.99986 14Z" fill="#98959E"/>
</svg>
