<svg width="24" height="24" viewBox="0 0 24 24" fill="none" xmlns="http://www.w3.org/2000/svg">
<path fill-rule="evenodd" clip-rule="evenodd" d="M9.94854 2.62861L9.19825 4.50433C8.36058 4.81757 7.58948 5.26721 6.91196 5.82622L4.90994 5.53777C4.50521 5.47946 4.10576 5.67343 3.90131 6.02755L2.77834 7.97259C2.57389 8.32671 2.60563 8.76963 2.85849 9.09097L4.10845 10.6795C4.0371 11.109 3.99998 11.5502 3.99998 12C3.99998 12.4497 4.03709 12.8908 4.10842 13.3203L2.8583 14.909C2.60544 15.2304 2.57369 15.6733 2.77814 16.0274L3.90111 17.9725C4.10556 18.3266 4.50502 18.5206 4.90974 18.4622L6.91194 18.1738C7.58947 18.7328 8.36058 19.1824 9.19825 19.4957L9.94854 21.3714C10.1004 21.751 10.4681 22 10.877 22H13.1229C13.5319 22 13.8996 21.751 14.0514 21.3714L14.8017 19.4957C15.6393 19.1824 16.4104 18.7328 17.0879 18.1739L19.0902 18.4624C19.4949 18.5207 19.8944 18.3267 20.0988 17.9726L21.2218 16.0276C21.4263 15.6734 21.3945 15.2305 21.1417 14.9092L19.8915 13.3204C19.9629 12.8909 20 12.4498 20 12C20 11.5502 19.9629 11.109 19.8915 10.6794L21.1415 9.09085C21.3943 8.76951 21.4261 8.32659 21.2216 7.97246L20.0987 6.02743C19.8942 5.67331 19.4947 5.47934 19.09 5.53765L17.0879 5.82611C16.4104 5.26716 15.6393 4.81756 14.8017 4.50433L14.0514 2.62861C13.8996 2.24895 13.5319 2 13.1229 2H10.877C10.4681 2 10.1004 2.24895 9.94854 2.62861ZM12 16C14.2091 16 16 14.2091 16 12C16 9.79086 14.2091 8 12 8C9.79084 8 7.99998 9.79086 7.99998 12C7.99998 14.2091 9.79084 16 12 16Z" fill="#98959E"/>
</svg>
